<svg width="350" height="391" viewBox="0 0 350 391" fill="none" xmlns="http://www.w3.org/2000/svg">
<path d="M19.7462 165.901L84.8491 125.948L155.894 165.07C183.74 180.457 217.701 159.65 216.963 127.609L215.098 46.0406L280.158 6.13078C307.309 -10.5238 342.138 8.66609 342.875 40.6638L344.74 122.276L279.68 162.185C252.529 178.84 253.44 218.837 281.372 234.18L348.21 270.986L349.988 347.746C350.726 379.788 316.808 400.595 288.919 385.208L222.081 348.402L220.303 271.642C219.522 239.644 184.737 220.454 157.586 237.109L92.5693 277.019L21.4812 237.896C-6.40763 222.553 -7.31852 182.512 19.7896 165.901H19.7462Z" fill="white"/>
</svg>
